<svg width="18" height="16" viewBox="0 0 18 16" fill="none" xmlns="http://www.w3.org/2000/svg">
<path d="M9.00183 14.625C13.9729 14.625 18.0018 11.352 18.0018 7.3125C18.0018 3.27305 13.9729 0 9.00183 0C4.03073 0 0.0018265 3.27305 0.0018265 7.3125C0.0018265 8.89805 0.624092 10.3641 1.67878 11.5629C1.61198 12.4242 1.278 13.1906 0.926436 13.7742C0.733077 14.0977 0.536202 14.3578 0.392061 14.5336C0.318233 14.6215 0.261983 14.6883 0.219795 14.734C0.198702 14.7551 0.184639 14.7727 0.174092 14.7832L0.163545 14.7937C0.0018265 14.9555 -0.0438766 15.1945 0.044014 15.4055C0.131905 15.6164 0.335811 15.7535 0.564327 15.7535C1.57331 15.7535 2.58933 15.4406 3.43308 15.075C4.23815 14.7234 4.9237 14.3051 5.34206 13.9992C6.46003 14.4035 7.69753 14.6285 9.00183 14.6285V14.625ZM4.50183 8.4375C3.87956 8.4375 3.37683 7.93477 3.37683 7.3125C3.37683 6.69023 3.87956 6.1875 4.50183 6.1875C5.12409 6.1875 5.62683 6.69023 5.62683 7.3125C5.62683 7.93477 5.12409 8.4375 4.50183 8.4375ZM9.00183 8.4375C8.37956 8.4375 7.87683 7.93477 7.87683 7.3125C7.87683 6.69023 8.37956 6.1875 9.00183 6.1875C9.62409 6.1875 10.1268 6.69023 10.1268 7.3125C10.1268 7.93477 9.62409 8.4375 9.00183 8.4375ZM14.6268 7.3125C14.6268 7.93477 14.1241 8.4375 13.5018 8.4375C12.8796 8.4375 12.3768 7.93477 12.3768 7.3125C12.3768 6.69023 12.8796 6.1875 13.5018 6.1875C14.1241 6.1875 14.6268 6.69023 14.6268 7.3125Z" fill="white"/>
</svg>
