<svg width="18" height="18" viewBox="0 0 18 18" fill="none" xmlns="http://www.w3.org/2000/svg">
<path d="M17.5112 0.196887C17.8663 0.442981 18.0526 0.868372 17.9858 1.29376L15.7358 15.9188C15.6831 16.2598 15.4757 16.5586 15.1733 16.7274C14.871 16.8961 14.5089 16.9172 14.1889 16.7836L9.98425 15.0363L7.57605 17.6414C7.26316 17.9824 6.77097 18.0949 6.33855 17.9262C5.90613 17.7574 5.62488 17.3391 5.62488 16.875V13.9359C5.62488 13.7953 5.67761 13.6617 5.77253 13.5598L11.6647 7.1297C11.8686 6.90822 11.8616 6.5672 11.6507 6.35626C11.4397 6.14533 11.0987 6.13126 10.8772 6.33165L3.72644 12.6844L0.622144 11.1305C0.249487 10.9442 0.0104248 10.5715 -0.00012211 10.1567C-0.010669 9.74181 0.2073 9.35509 0.565894 9.14767L16.3159 0.147669C16.6921 -0.0667845 17.1561 -0.0456908 17.5112 0.196887Z" fill="red"/>
</svg>
