<svg width="28" height="28" viewBox="0 0 28 28" fill="none" xmlns="http://www.w3.org/2000/svg">
<path fill-rule="evenodd" clip-rule="evenodd" d="M14.0004 0.666687C6.63629 0.666687 0.666504 6.63756 0.666504 14.0006C0.666504 21.3647 6.63629 27.3334 14.0004 27.3334C21.3645 27.3334 27.3332 21.3647 27.3332 14.0006C27.3332 6.63756 21.3639 0.666687 14.0004 0.666687ZM20.7169 11.3121C20.7239 11.4562 20.7266 11.6007 20.7266 11.7469C20.7266 16.1876 17.3467 21.3073 11.1663 21.3073C9.26895 21.3073 7.50211 20.7512 6.01522 19.7982C6.27837 19.829 6.54532 19.8447 6.8166 19.8447C8.39122 19.8447 9.84021 19.3076 10.9898 18.4066C9.51966 18.3789 8.27913 17.407 7.85136 16.0723C8.05604 16.1123 8.26668 16.1324 8.48327 16.1324C8.78974 16.1324 9.08647 16.0923 9.36858 16.0149C7.83079 15.7062 6.67257 14.3471 6.67257 12.7205C6.67257 12.7059 6.67257 12.6918 6.67311 12.6772C7.12578 12.929 7.64398 13.0801 8.1952 13.0979C7.2931 12.4942 6.70018 11.467 6.70018 10.3006C6.70018 9.68499 6.86588 9.10723 7.15503 8.61124C8.81249 10.6439 11.2887 11.9819 14.0816 12.1216C14.0242 11.8763 13.9944 11.6191 13.9944 11.356C13.9944 9.50089 15.4986 7.99612 17.3548 7.99612C18.3214 7.99612 19.1942 8.4044 19.8072 9.05688C20.5728 8.90689 21.2919 8.6264 21.9411 8.24141C21.6894 9.02655 21.1571 9.68499 20.4629 10.1003C21.1435 10.0191 21.7912 9.83823 22.3933 9.57128C21.9438 10.2465 21.3737 10.8383 20.7169 11.3121Z" fill="#DE0A2D"/>
</svg>
