<svg width="28" height="28" viewBox="0 0 28 28" fill="none" xmlns="http://www.w3.org/2000/svg">
<path fill-rule="evenodd" clip-rule="evenodd" d="M14.0004 0.666687C6.63629 0.666687 0.666504 6.63756 0.666504 14.0006C0.666504 21.3647 6.63629 27.3334 14.0004 27.3334C21.3645 27.3334 27.3343 21.3647 27.3343 14.0006C27.3343 6.63756 21.3639 0.666687 14.0004 0.666687ZM17.5292 13.9448H15.2203C15.2203 17.6344 15.2203 22.179 15.2203 22.179H11.7982C11.7982 22.179 11.7982 17.681 11.7982 13.9448H10.1705V11.0376H11.7982V9.1538C11.7982 7.80552 12.4382 5.7008 15.2523 5.7008L17.7864 5.71055V8.53435C17.7864 8.53435 16.2453 8.53435 15.9464 8.53435C15.6459 8.53435 15.2209 8.68434 15.2209 9.32545V11.0381H17.8297L17.5292 13.9448Z" fill="#DE0A2D"/>
</svg>
