<?xml version="1.0" encoding="UTF-8" standalone="no"?>
<!-- Created with Inkscape (http://www.inkscape.org/) -->

<svg
   width="91.800972mm"
   height="17.873581mm"
   viewBox="0 0 91.800972 17.873581"
   version="1.1"
   id="svg12"
   xmlSpace="preserve"
   xmlns="http://www.w3.org/2000/svg"
   xmlnsSvg="http://www.w3.org/2000/svg"><defs
     id="defs9"><clipPath
       clipPathUnits="userSpaceOnUse"
       id="clipPath378"><rect
         id="rect380"
         width="209.29976"
         height="125.99126"
         x="-12.127245"
         y="-34.55954"
         style="fill:#ffffff;stroke-width:0.473697" /></clipPath><clipPath
       clipPathUnits="userSpaceOnUse"
       id="clipPath382"><rect
         id="rect384"
         width="215.92757"
         height="129.98097"
         x="-43.959579"
         y="-57.750019"
         style="fill:#ffffff;stroke-width:0.488697" /></clipPath><clipPath
       clipPathUnits="userSpaceOnUse"
       id="clipPath386"><rect
         id="rect388"
         width="217.65413"
         height="134.41382"
         x="-45.759769"
         y="-40.624836"
         style="fill:#ffffff;stroke-width:0.498943" /></clipPath></defs><g
     id="layer1"
     transform="translate(-3.614091,-21.026615)"><rect
       style="fill:#ffffff;stroke-width:0.319866"
       id="rect390"
       width="91.800003"
       height="17.870001"
       x="3.6140909"
       y="21.026615" /><g
       style="fill:none"
       id="g25"
       transform="matrix(0.53711021,0,0,0.52354993,21.418465,22.992534)"
       clip-path="url(#clipPath386)"><path
         d="m 7.84494,1.38 v 1.488 h -2.96 V 12.5 h -1.824 V 2.868 H 0.0849375 V 1.38 Z m 6.40726,2.16 c 0.672,0 1.2693,0.144 1.792,0.432 0.5333,0.288 0.9493,0.71467 1.248,1.28 0.3093,0.56533 0.464,1.248 0.464,2.048 v 5.2 h -1.808 V 7.572 c 0,-0.78933 -0.1973,-1.392 -0.592,-1.808 -0.3947,-0.42667 -0.9333,-0.64 -1.616,-0.64 -0.6827,0 -1.2267,0.21333 -1.632,0.64 -0.3947,0.416 -0.592,1.01867 -0.592,1.808 V 12.5 H 9.69219 V 0.66 h 1.82401 v 4.048 c 0.3093,-0.37333 0.6987,-0.66133 1.168,-0.864 0.48,-0.20267 1.0027,-0.304 1.568,-0.304 z m 13.9106,4.336 c 0,0.33067 -0.0213,0.62933 -0.064,0.896 h -6.736 c 0.0533,0.704 0.3147,1.2693 0.784,1.696 0.4693,0.4267 1.0453,0.64 1.728,0.64 0.9813,0 1.6747,-0.4107 2.08,-1.232 h 1.968 c -0.2667,0.8107 -0.752,1.4773 -1.456,2 -0.6933,0.512 -1.5573,0.768 -2.592,0.768 -0.8427,0 -1.6,-0.1867 -2.272,-0.56 -0.6613,-0.384 -1.184,-0.9173 -1.568,-1.6 -0.3733,-0.69333 -0.56,-1.49333 -0.56,-2.4 0,-0.90667 0.1813,-1.70133 0.544,-2.384 0.3733,-0.69333 0.8907,-1.22667 1.552,-1.6 0.672,-0.37333 1.44,-0.56 2.304,-0.56 0.832,0 1.5733,0.18133 2.224,0.544 0.6507,0.36267 1.1573,0.87467 1.52,1.536 0.3627,0.65067 0.544,1.40267 0.544,2.256 z M 26.2588,7.3 C 26.2481,6.628 26.0081,6.08933 25.5388,5.684 25.0695,5.27867 24.4881,5.076 23.7948,5.076 c -0.6293,0 -1.168,0.20267 -1.616,0.608 -0.448,0.39467 -0.7147,0.93333 -0.8,1.616 z M 40.0661,6.788 c 0.5973,0.10667 1.104,0.42133 1.52,0.944 0.416,0.52267 0.624,1.11467 0.624,1.776 0,0.5653 -0.1494,1.0773 -0.448,1.536 -0.288,0.448 -0.7094,0.8053 -1.264,1.072 -0.5547,0.256 -1.2,0.384 -1.936,0.384 h -4.448 V 1.38 h 4.24 c 0.7573,0 1.408,0.128 1.952,0.384 0.544,0.256 0.9546,0.60267 1.232,1.04 0.2773,0.42667 0.416,0.90667 0.416,1.44 0,0.64 -0.1707,1.17333 -0.512,1.6 -0.3414,0.42667 -0.8,0.74133 -1.376,0.944 z m -4.128,-0.736 h 2.256 c 0.5973,0 1.0613,-0.13333 1.392,-0.4 0.3413,-0.27733 0.512,-0.672 0.512,-1.184 0,-0.50133 -0.1707,-0.89067 -0.512,-1.168 -0.3307,-0.288 -0.7947,-0.432 -1.392,-0.432 h -2.256 z m 2.464,4.96 c 0.6186,0 1.104,-0.1493 1.456,-0.448 0.352,-0.2987 0.528,-0.71467 0.528,-1.248 0,-0.544 -0.1867,-0.976 -0.56,-1.296 C 39.4527,7.7 38.9567,7.54 38.3381,7.54 h -2.4 v 3.472 z M 46.0162,0.66 V 12.5 h -1.824 V 0.66 Z m 6.2187,11.984 c -0.832,0 -1.584,-0.1867 -2.256,-0.56 -0.672,-0.384 -1.2,-0.9173 -1.584,-1.6 -0.384,-0.69333 -0.576,-1.49333 -0.576,-2.4 0,-0.896 0.1974,-1.69067 0.592,-2.384 0.3947,-0.69333 0.9334,-1.22667 1.616,-1.6 0.6827,-0.37333 1.4454,-0.56 2.288,-0.56 0.8427,0 1.6054,0.18667 2.288,0.56 0.6827,0.37333 1.2214,0.90667 1.616,1.6 0.3947,0.69333 0.592,1.488 0.592,2.384 0,0.896 -0.2026,1.69067 -0.608,2.384 -0.4053,0.6933 -0.96,1.232 -1.664,1.616 -0.6933,0.3733 -1.4613,0.56 -2.304,0.56 z m 0,-1.584 c 0.4694,0 0.9067,-0.112 1.312,-0.336 0.416,-0.224 0.752,-0.56 1.008,-1.008 0.256,-0.448 0.384,-0.992 0.384,-1.632 0,-0.64 -0.1226,-1.17867 -0.368,-1.616 C 54.3256,6.02 54.0003,5.684 53.5949,5.46 53.1896,5.236 52.7523,5.124 52.2829,5.124 c -0.4693,0 -0.9066,0.112 -1.312,0.336 -0.3946,0.224 -0.7093,0.56 -0.944,1.008 -0.2346,0.43733 -0.352,0.976 -0.352,1.616 0,0.94933 0.24,1.68533 0.72,2.208 0.4907,0.512 1.104,0.768 1.84,0.768 z m 10.2032,1.584 c -0.832,0 -1.584,-0.1867 -2.256,-0.56 -0.672,-0.384 -1.2,-0.9173 -1.584,-1.6 -0.384,-0.69333 -0.576,-1.49333 -0.576,-2.4 0,-0.896 0.1973,-1.69067 0.592,-2.384 0.3946,-0.69333 0.9333,-1.22667 1.616,-1.6 0.6826,-0.37333 1.4453,-0.56 2.288,-0.56 0.8426,0 1.6053,0.18667 2.288,0.56 0.6826,0.37333 1.2213,0.90667 1.616,1.6 0.3946,0.69333 0.592,1.488 0.592,2.384 0,0.896 -0.2027,1.69067 -0.608,2.384 -0.4054,0.6933 -0.96,1.232 -1.664,1.616 -0.6934,0.3733 -1.4614,0.56 -2.304,0.56 z m 0,-1.584 c 0.4693,0 0.9066,-0.112 1.312,-0.336 0.416,-0.224 0.752,-0.56 1.008,-1.008 0.256,-0.448 0.384,-0.992 0.384,-1.632 0,-0.64 -0.1227,-1.17867 -0.368,-1.616 C 64.5287,6.02 64.2034,5.684 63.7981,5.46 63.3927,5.236 62.9554,5.124 62.4861,5.124 c -0.4694,0 -0.9067,0.112 -1.312,0.336 -0.3947,0.224 -0.7094,0.56 -0.944,1.008 -0.2347,0.43733 -0.352,0.976 -0.352,1.616 0,0.94933 0.24,1.68533 0.72,2.208 0.4906,0.512 1.104,0.768 1.84,0.768 z m 5.7711,-3.008 c 0,-0.88533 0.1813,-1.66933 0.544,-2.352 0.3733,-0.68267 0.8747,-1.21067 1.504,-1.584 0.64,-0.384 1.3493,-0.576 2.128,-0.576 0.576,0 1.1413,0.128 1.696,0.384 0.5653,0.24533 1.0133,0.576 1.344,0.992 V 0.66 h 1.84 V 12.5 h -1.84 v -1.328 c -0.2987,0.4267 -0.7147,0.7787 -1.248,1.056 -0.5227,0.2773 -1.1253,0.416 -1.808,0.416 -0.768,0 -1.472,-0.192 -2.112,-0.576 -0.6293,-0.3947 -1.1307,-0.9387 -1.504,-1.632 -0.3627,-0.704 -0.544,-1.49867 -0.544,-2.384 z m 7.216,0.032 c 0,-0.608 -0.128,-1.136 -0.384,-1.584 -0.2453,-0.448 -0.5707,-0.78933 -0.976,-1.024 -0.4053,-0.23467 -0.8427,-0.352 -1.312,-0.352 -0.4693,0 -0.9067,0.11733 -1.312,0.352 -0.4053,0.224 -0.736,0.56 -0.992,1.008 -0.2453,0.43733 -0.368,0.96 -0.368,1.568 0,0.608 0.1227,1.14133 0.368,1.6 0.256,0.4587 0.5867,0.8107 0.992,1.056 0.416,0.2347 0.8533,0.352 1.312,0.352 0.4693,0 0.9067,-0.1173 1.312,-0.352 0.4053,-0.2347 0.7307,-0.576 0.976,-1.024 0.256,-0.45867 0.384,-0.992 0.384,-1.6 z M 92.6972,1.38 V 12.5 h -1.824 V 7.636 h -5.232 V 12.5 h -1.824 V 1.38 h 1.824 v 4.768 h 5.232 V 1.38 Z m 10.4808,6.496 c 0,0.33067 -0.021,0.62933 -0.064,0.896 h -6.7356 c 0.0534,0.704 0.3147,1.2693 0.784,1.696 0.4694,0.4267 1.0454,0.64 1.728,0.64 0.9814,0 1.6746,-0.4107 2.0796,-1.232 h 1.968 c -0.266,0.8107 -0.752,1.4773 -1.456,2 -0.693,0.512 -1.5569,0.768 -2.5916,0.768 -0.8426,0 -1.6,-0.1867 -2.272,-0.56 -0.6613,-0.384 -1.184,-0.9173 -1.568,-1.6 -0.3733,-0.69333 -0.56,-1.49333 -0.56,-2.4 0,-0.90667 0.1814,-1.70133 0.544,-2.384 0.3734,-0.69333 0.8907,-1.22667 1.552,-1.6 0.672,-0.37333 1.44,-0.56 2.304,-0.56 0.832,0 1.5736,0.18133 2.2236,0.544 0.651,0.36267 1.158,0.87467 1.52,1.536 0.363,0.65067 0.544,1.40267 0.544,2.256 z M 101.274,7.3 c -0.01,-0.672 -0.25,-1.21067 -0.72,-1.616 -0.469,-0.40533 -1.0502,-0.608 -1.7436,-0.608 -0.6293,0 -1.168,0.20267 -1.616,0.608 -0.448,0.39467 -0.7146,0.93333 -0.8,1.616 z m 5.523,-2.336 c 0.267,-0.448 0.619,-0.79467 1.056,-1.04 0.448,-0.256 0.976,-0.384 1.584,-0.384 v 1.888 h -0.464 c -0.714,0 -1.258,0.18133 -1.632,0.544 -0.362,0.36267 -0.544,0.992 -0.544,1.888 v 4.64 h -1.824 V 3.684 h 1.824 z m 8.141,7.68 c -0.832,0 -1.584,-0.1867 -2.256,-0.56 -0.672,-0.384 -1.2,-0.9173 -1.584,-1.6 -0.384,-0.69333 -0.576,-1.49333 -0.576,-2.4 0,-0.896 0.197,-1.69067 0.592,-2.384 0.395,-0.69333 0.933,-1.22667 1.616,-1.6 0.683,-0.37333 1.445,-0.56 2.288,-0.56 0.843,0 1.605,0.18667 2.288,0.56 0.683,0.37333 1.221,0.90667 1.616,1.6 0.395,0.69333 0.592,1.488 0.592,2.384 0,0.896 -0.203,1.69067 -0.608,2.384 -0.405,0.6933 -0.96,1.232 -1.664,1.616 -0.693,0.3733 -1.461,0.56 -2.304,0.56 z m 0,-1.584 c 0.469,0 0.907,-0.112 1.312,-0.336 0.416,-0.224 0.752,-0.56 1.008,-1.008 0.256,-0.448 0.384,-0.992 0.384,-1.632 0,-0.64 -0.123,-1.17867 -0.368,-1.616 -0.245,-0.448 -0.571,-0.784 -0.976,-1.008 -0.405,-0.224 -0.843,-0.336 -1.312,-0.336 -0.469,0 -0.907,0.112 -1.312,0.336 -0.395,0.224 -0.709,0.56 -0.944,1.008 -0.235,0.43733 -0.352,0.976 -0.352,1.616 0,0.94933 0.24,1.68533 0.72,2.208 0.491,0.512 1.104,0.768 1.84,0.768 z m 14.459,-3.184 c 0,0.33067 -0.021,0.62933 -0.064,0.896 h -6.736 c 0.054,0.704 0.315,1.2693 0.784,1.696 0.47,0.4267 1.046,0.64 1.728,0.64 0.982,0 1.675,-0.4107 2.08,-1.232 h 1.968 c -0.266,0.8107 -0.752,1.4773 -1.456,2 -0.693,0.512 -1.557,0.768 -2.592,0.768 -0.842,0 -1.6,-0.1867 -2.272,-0.56 -0.661,-0.384 -1.184,-0.9173 -1.568,-1.6 -0.373,-0.69333 -0.56,-1.49333 -0.56,-2.4 0,-0.90667 0.182,-1.70133 0.544,-2.384 0.374,-0.69333 0.891,-1.22667 1.552,-1.6 0.672,-0.37333 1.44,-0.56 2.304,-0.56 0.832,0 1.574,0.18133 2.224,0.544 0.651,0.36267 1.158,0.87467 1.52,1.536 0.363,0.65067 0.544,1.40267 0.544,2.256 z M 127.493,7.3 c -0.01,-0.672 -0.25,-1.21067 -0.72,-1.616 -0.469,-0.40533 -1.05,-0.608 -1.744,-0.608 -0.629,0 -1.168,0.20267 -1.616,0.608 -0.448,0.39467 -0.714,0.93333 -0.8,1.616 z m 6.899,5.344 c -0.693,0 -1.317,-0.1227 -1.872,-0.368 -0.544,-0.256 -0.976,-0.5973 -1.296,-1.024 -0.32,-0.4373 -0.49,-0.9227 -0.512,-1.456 h 1.888 c 0.032,0.3733 0.208,0.688 0.528,0.944 0.331,0.2453 0.742,0.368 1.232,0.368 0.512,0 0.907,-0.096 1.184,-0.288 0.288,-0.2027 0.432,-0.4587 0.432,-0.768 0,-0.33067 -0.16,-0.576 -0.48,-0.736 -0.309,-0.16 -0.805,-0.336 -1.488,-0.528 -0.661,-0.18133 -1.2,-0.35733 -1.616,-0.528 -0.416,-0.17067 -0.778,-0.432 -1.088,-0.784 -0.298,-0.352 -0.448,-0.816 -0.448,-1.392 0,-0.46933 0.139,-0.896 0.416,-1.28 0.278,-0.39467 0.672,-0.704 1.184,-0.928 0.523,-0.224 1.12,-0.336 1.792,-0.336 1.003,0 1.808,0.256 2.416,0.768 0.619,0.50133 0.95,1.18933 0.992,2.064 h -1.824 c -0.032,-0.39467 -0.192,-0.70933 -0.48,-0.944 -0.288,-0.23467 -0.677,-0.352 -1.168,-0.352 -0.48,0 -0.848,0.09067 -1.104,0.272 -0.256,0.18133 -0.384,0.42133 -0.384,0.72 0,0.23467 0.086,0.432 0.256,0.592 0.171,0.16 0.379,0.288 0.624,0.384 0.246,0.08533 0.608,0.19733 1.088,0.336 0.64,0.17067 1.163,0.34667 1.568,0.528 0.416,0.17067 0.774,0.42667 1.072,0.768 0.299,0.34133 0.454,0.79467 0.464,1.36 0,0.5013 -0.138,0.9493 -0.416,1.344 -0.277,0.3947 -0.672,0.704 -1.184,0.928 -0.501,0.224 -1.093,0.336 -1.776,0.336 z"
         fill="#000000"
         id="path16" /></g><g
       style="fill:none"
       id="g36"
       transform="matrix(0.54140497,0,0,0.54140497,20.640361,32.989551)"
       clip-path="url(#clipPath382)"><path
         d="m 4.98875,0.924 -1.816,3.472 V 6.5 h -0.728 V 4.396 l -1.824,-3.472 h 0.808 l 1.376,2.824 1.376,-2.824 z m 2.67988,5.648 c -0.41067,0 -0.784,-0.09333 -1.12,-0.28 -0.33067,-0.18667 -0.592,-0.45067 -0.784,-0.792 -0.18667,-0.34667 -0.28,-0.74667 -0.28,-1.2 0,-0.448 0.096,-0.84267 0.288,-1.184 0.19733,-0.34667 0.464,-0.61067 0.8,-0.792 0.336,-0.18667 0.712,-0.28 1.128,-0.28 0.416,0 0.792,0.09333 1.128,0.28 0.336,0.18133 0.6,0.44267 0.792,0.784 0.19733,0.34133 0.296,0.73867 0.296,1.192 0,0.45333 -0.10134,0.85333 -0.304,1.2 -0.19734,0.34133 -0.46667,0.60533 -0.808,0.792 -0.34134,0.18667 -0.72,0.28 -1.136,0.28 z m 0,-0.64 c 0.26133,0 0.50666,-0.06133 0.736,-0.184 0.22933,-0.12267 0.41333,-0.30667 0.552,-0.552 0.144,-0.24533 0.216,-0.544 0.216,-0.896 0,-0.352 -0.06934,-0.65067 -0.208,-0.896 -0.13867,-0.24533 -0.32,-0.42667 -0.544,-0.544 -0.224,-0.12267 -0.46667,-0.184 -0.728,-0.184 -0.26667,0 -0.512,0.06133 -0.736,0.184 -0.21867,0.11733 -0.39467,0.29867 -0.528,0.544 -0.13334,0.24533 -0.2,0.544 -0.2,0.896 0,0.35733 0.064,0.65867 0.192,0.904 0.13333,0.24533 0.30933,0.42933 0.528,0.552 0.21866,0.11733 0.45866,0.176 0.72,0.176 z M 14.7618,2.116 V 6.5 h -0.728 V 5.852 c -0.1387,0.224 -0.3333,0.4 -0.584,0.528 -0.2453,0.12267 -0.5173,0.184 -0.816,0.184 -0.3413,0 -0.648,-0.06933 -0.92,-0.208 -0.272,-0.144 -0.488,-0.35733 -0.648,-0.64 -0.1547,-0.28267 -0.232,-0.62667 -0.232,-1.032 V 2.116 h 0.72 v 2.472 c 0,0.432 0.1093,0.76533 0.328,1 0.2187,0.22933 0.5173,0.344 0.896,0.344 0.3893,0 0.696,-0.12 0.92,-0.36 0.224,-0.24 0.336,-0.58933 0.336,-1.048 V 2.116 Z m 1.9572,0.712 c 0.128,-0.25067 0.3093,-0.44533 0.544,-0.584 0.24,-0.13867 0.5307,-0.208 0.872,-0.208 v 0.752 h -0.192 c -0.816,0 -1.224,0.44267 -1.224,1.328 V 6.5 H 15.991 V 2.116 h 0.728 z m 5.1172,0.104 c 0.1493,-0.26133 0.368,-0.47467 0.656,-0.64 0.288,-0.16533 0.616,-0.248 0.984,-0.248 0.3947,0 0.7493,0.09333 1.064,0.28 0.3147,0.18667 0.5627,0.45067 0.744,0.792 0.1813,0.336 0.272,0.728 0.272,1.176 0,0.44267 -0.0907,0.83733 -0.272,1.184 -0.1813,0.34667 -0.432,0.616 -0.752,0.808 -0.3147,0.192 -0.6667,0.288 -1.056,0.288 -0.3787,0 -0.712,-0.08267 -1,-0.248 -0.2827,-0.16533 -0.496,-0.376 -0.64,-0.632 V 6.5 h -0.728 V 0.58 h 0.728 z m 2.976,1.36 c 0,-0.33067 -0.0667,-0.61867 -0.2,-0.864 -0.1333,-0.24533 -0.3147,-0.432 -0.544,-0.56 -0.224,-0.128 -0.472,-0.192 -0.744,-0.192 -0.2667,0 -0.5147,0.06667 -0.744,0.2 -0.224,0.128 -0.4053,0.31733 -0.544,0.568 -0.1333,0.24533 -0.2,0.53067 -0.2,0.856 0,0.33067 0.0667,0.62133 0.2,0.872 0.1387,0.24533 0.32,0.43467 0.544,0.568 0.2293,0.128 0.4773,0.192 0.744,0.192 0.272,0 0.52,-0.064 0.744,-0.192 0.2293,-0.13333 0.4107,-0.32267 0.544,-0.568 0.1333,-0.25067 0.2,-0.544 0.2,-0.88 z M 27.2424,0.58 V 6.5 h -0.728 V 0.58 Z m 3.1528,5.992 c -0.4107,0 -0.784,-0.09333 -1.12,-0.28 -0.3307,-0.18667 -0.592,-0.45067 -0.784,-0.792 -0.1867,-0.34667 -0.28,-0.74667 -0.28,-1.2 0,-0.448 0.096,-0.84267 0.288,-1.184 0.1973,-0.34667 0.464,-0.61067 0.8,-0.792 0.336,-0.18667 0.712,-0.28 1.128,-0.28 0.416,0 0.792,0.09333 1.128,0.28 0.336,0.18133 0.6,0.44267 0.792,0.784 0.1973,0.34133 0.296,0.73867 0.296,1.192 0,0.45333 -0.1013,0.85333 -0.304,1.2 -0.1973,0.34133 -0.4667,0.60533 -0.808,0.792 -0.3413,0.18667 -0.72,0.28 -1.136,0.28 z m 0,-0.64 c 0.2613,0 0.5067,-0.06133 0.736,-0.184 0.2293,-0.12267 0.4133,-0.30667 0.552,-0.552 0.144,-0.24533 0.216,-0.544 0.216,-0.896 0,-0.352 -0.0693,-0.65067 -0.208,-0.896 -0.1387,-0.24533 -0.32,-0.42667 -0.544,-0.544 -0.224,-0.12267 -0.4667,-0.184 -0.728,-0.184 -0.2667,0 -0.512,0.06133 -0.736,0.184 -0.2187,0.11733 -0.3947,0.29867 -0.528,0.544 -0.1333,0.24533 -0.2,0.544 -0.2,0.896 0,0.35733 0.064,0.65867 0.192,0.904 0.1333,0.24533 0.3093,0.42933 0.528,0.552 0.2187,0.11733 0.4587,0.176 0.72,0.176 z m 5.1172,0.64 c -0.4107,0 -0.784,-0.09333 -1.12,-0.28 -0.3307,-0.18667 -0.592,-0.45067 -0.784,-0.792 -0.1867,-0.34667 -0.28,-0.74667 -0.28,-1.2 0,-0.448 0.096,-0.84267 0.288,-1.184 0.1973,-0.34667 0.464,-0.61067 0.8,-0.792 0.336,-0.18667 0.712,-0.28 1.128,-0.28 0.416,0 0.792,0.09333 1.128,0.28 0.336,0.18133 0.6,0.44267 0.792,0.784 0.1973,0.34133 0.296,0.73867 0.296,1.192 0,0.45333 -0.1014,0.85333 -0.304,1.2 -0.1974,0.34133 -0.4667,0.60533 -0.808,0.792 -0.3414,0.18667 -0.72,0.28 -1.136,0.28 z m 0,-0.64 c 0.2613,0 0.5066,-0.06133 0.736,-0.184 0.2293,-0.12267 0.4133,-0.30667 0.552,-0.552 0.144,-0.24533 0.216,-0.544 0.216,-0.896 0,-0.352 -0.0694,-0.65067 -0.208,-0.896 -0.1387,-0.24533 -0.32,-0.42667 -0.544,-0.544 -0.224,-0.12267 -0.4667,-0.184 -0.728,-0.184 -0.2667,0 -0.512,0.06133 -0.736,0.184 -0.2187,0.11733 -0.3947,0.29867 -0.528,0.544 -0.1334,0.24533 -0.2,0.544 -0.2,0.896 0,0.35733 0.064,0.65867 0.192,0.904 0.1333,0.24533 0.3093,0.42933 0.528,0.552 0.2186,0.11733 0.4586,0.176 0.72,0.176 z m 2.9332,-1.64 c 0,-0.448 0.0906,-0.84 0.272,-1.176 0.1813,-0.34133 0.4293,-0.60533 0.744,-0.792 0.32,-0.18667 0.6773,-0.28 1.072,-0.28 0.3413,0 0.6586,0.08 0.952,0.24 0.2933,0.15467 0.5173,0.36 0.672,0.616 V 0.58 h 0.736 V 6.5 h -0.736 V 5.676 c -0.144,0.26133 -0.3574,0.47733 -0.64,0.648 -0.2827,0.16533 -0.6134,0.248 -0.992,0.248 -0.3894,0 -0.744,-0.096 -1.064,-0.288 C 39.1469,6.092 38.8989,5.82267 38.7176,5.476 38.5362,5.12933 38.4456,4.73467 38.4456,4.292 Z m 3.712,0.008 c 0,-0.33067 -0.0667,-0.61867 -0.2,-0.864 -0.1334,-0.24533 -0.3147,-0.432 -0.544,-0.56 -0.224,-0.13333 -0.472,-0.2 -0.744,-0.2 -0.272,0 -0.52,0.064 -0.744,0.192 -0.224,0.128 -0.4027,0.31467 -0.536,0.56 -0.1334,0.24533 -0.2,0.53333 -0.2,0.864 0,0.336 0.0666,0.62933 0.2,0.88 0.1333,0.24533 0.312,0.43467 0.536,0.568 0.224,0.128 0.472,0.192 0.744,0.192 0.272,0 0.52,-0.064 0.744,-0.192 0.2293,-0.13333 0.4106,-0.32267 0.544,-0.568 0.1333,-0.25067 0.2,-0.54133 0.2,-0.872 z m 4.475,-2.896 c -0.1386,0 -0.256,-0.048 -0.352,-0.144 -0.096,-0.096 -0.144,-0.21333 -0.144,-0.352 0,-0.138667 0.048,-0.256 0.144,-0.352 0.096,-0.096 0.2134,-0.144 0.352,-0.144 0.1334,0 0.2454,0.048 0.336,0.144 0.096,0.096 0.144,0.213333 0.144,0.352 0,0.13867 -0.048,0.256 -0.144,0.352 -0.0906,0.096 -0.2026,0.144 -0.336,0.144 z m 0.352,0.712 V 6.5 h -0.728 V 2.116 Z m 2.7928,4.456 c -0.336,0 -0.6374,-0.056 -0.904,-0.168 -0.2667,-0.11733 -0.4774,-0.27733 -0.632,-0.48 -0.1547,-0.208 -0.24,-0.44533 -0.256,-0.712 h 0.752 c 0.0213,0.21867 0.1226,0.39733 0.304,0.536 0.1866,0.13867 0.4293,0.208 0.728,0.208 0.2773,0 0.496,-0.06133 0.656,-0.184 0.16,-0.12267 0.24,-0.27733 0.24,-0.464 0,-0.192 -0.0854,-0.33333 -0.256,-0.424 -0.1707,-0.096 -0.4347,-0.18933 -0.792,-0.28 -0.3254,-0.08533 -0.592,-0.17067 -0.8,-0.256 -0.2027,-0.09067 -0.3787,-0.22133 -0.528,-0.392 -0.144,-0.176 -0.216,-0.40533 -0.216,-0.688 0,-0.224 0.0666,-0.42933 0.2,-0.616 0.1333,-0.18667 0.3226,-0.33333 0.568,-0.44 0.2453,-0.112 0.5253,-0.168 0.84,-0.168 0.4853,0 0.8773,0.12267 1.176,0.368 0.2986,0.24533 0.4586,0.58133 0.48,1.008 h -0.728 C 50.5934,3.19067 50.5,3.00667 50.3294,2.868 50.164,2.72933 49.94,2.66 49.6574,2.66 c -0.2614,0 -0.4694,0.056 -0.624,0.168 -0.1547,0.112 -0.232,0.25867 -0.232,0.44 0,0.144 0.0453,0.264 0.136,0.36 0.096,0.09067 0.2133,0.16533 0.352,0.224 0.144,0.05333 0.3413,0.11467 0.592,0.184 0.3146,0.08533 0.5706,0.17067 0.768,0.256 0.1973,0.08 0.3653,0.20267 0.504,0.368 0.144,0.16533 0.2186,0.38133 0.224,0.648 0,0.24 -0.0667,0.456 -0.2,0.648 -0.1334,0.192 -0.3227,0.344 -0.568,0.456 -0.24,0.10667 -0.5174,0.16 -0.832,0.16 z M 55.4259,2.716 V 5.3 c 0,0.21333 0.0453,0.36533 0.136,0.456 0.0906,0.08533 0.248,0.128 0.472,0.128 h 0.536 V 6.5 h -0.656 C 55.5085,6.5 55.2045,6.40667 55.0019,6.22 54.7992,6.03333 54.6979,5.72667 54.6979,5.3 V 2.716 h -0.568 v -0.6 h 0.568 V 1.012 h 0.728 v 1.104 h 1.144 v 0.6 z m 4.202,-0.68 c 0.3307,0 0.6294,0.072 0.896,0.216 0.2667,0.13867 0.4747,0.34933 0.624,0.632 0.1547,0.28267 0.232,0.62667 0.232,1.032 V 6.5 h -0.72 V 4.02 c 0,-0.43733 -0.1093,-0.77067 -0.328,-1 -0.2186,-0.23467 -0.5173,-0.352 -0.896,-0.352 -0.384,0 -0.6906,0.12 -0.92,0.36 -0.224,0.24 -0.336,0.58933 -0.336,1.048 V 6.5 h -0.728 V 0.58 h 0.728 v 2.16 c 0.144,-0.224 0.3414,-0.39733 0.592,-0.52 0.256,-0.12267 0.5414,-0.184 0.856,-0.184 z m 6.9412,2.104 c 0,0.13867 -0.008,0.28533 -0.024,0.44 h -3.504 c 0.0267,0.432 0.1734,0.77067 0.44,1.016 0.272,0.24 0.6,0.36 0.984,0.36 0.3147,0 0.576,-0.072 0.784,-0.216 0.2134,-0.14933 0.3627,-0.34667 0.448,-0.592 h 0.784 c -0.1173,0.42133 -0.352,0.76533 -0.704,1.032 -0.352,0.26133 -0.7893,0.392 -1.312,0.392 -0.416,0 -0.7893,-0.09333 -1.12,-0.28 -0.3253,-0.18667 -0.5813,-0.45067 -0.768,-0.792 -0.1866,-0.34667 -0.28,-0.74667 -0.28,-1.2 0,-0.45333 0.0907,-0.85067 0.272,-1.192 0.1814,-0.34133 0.4347,-0.60267 0.76,-0.784 0.3307,-0.18667 0.7094,-0.28 1.136,-0.28 0.416,0 0.784,0.09067 1.104,0.272 0.32,0.18133 0.5654,0.432 0.736,0.752 0.176,0.31467 0.264,0.672 0.264,1.072 z m -0.752,-0.152 c 0,-0.27733 -0.0613,-0.51467 -0.184,-0.712 -0.1226,-0.20267 -0.2906,-0.35467 -0.504,-0.456 -0.208,-0.10667 -0.44,-0.16 -0.696,-0.16 -0.368,0 -0.6826,0.11733 -0.944,0.352 -0.256,0.23467 -0.4026,0.56 -0.44,0.976 z m 2.089,-2.584 c -0.1387,0 -0.256,-0.048 -0.352,-0.144 -0.096,-0.096 -0.144,-0.21333 -0.144,-0.352 0,-0.138667 0.048,-0.256 0.144,-0.352 0.096,-0.096 0.2133,-0.144 0.352,-0.144 0.1333,0 0.2453,0.048 0.336,0.144 0.096,0.096 0.144,0.213333 0.144,0.352 0,0.13867 -0.048,0.256 -0.144,0.352 -0.0907,0.096 -0.2027,0.144 -0.336,0.144 z m 0.352,0.712 V 6.5 h -0.728 V 2.116 Z m 1.9687,0.712 c 0.128,-0.25067 0.3093,-0.44533 0.544,-0.584 0.24,-0.13867 0.5307,-0.208 0.872,-0.208 v 0.752 h -0.192 c -0.816,0 -1.224,0.44267 -1.224,1.328 V 6.5 h -0.728 V 2.116 h 0.728 z M 75.344,0.58 V 6.5 H 74.616 V 0.58 Z m 1.6168,0.824 c -0.1387,0 -0.256,-0.048 -0.352,-0.144 -0.096,-0.096 -0.144,-0.21333 -0.144,-0.352 0,-0.138667 0.048,-0.256 0.144,-0.352 0.096,-0.096 0.2133,-0.144 0.352,-0.144 0.1333,0 0.2453,0.048 0.336,0.144 0.096,0.096 0.144,0.213333 0.144,0.352 0,0.13867 -0.048,0.256 -0.144,0.352 -0.0907,0.096 -0.2027,0.144 -0.336,0.144 z m 0.352,0.712 V 6.5 h -0.728 V 2.116 Z m 3.0247,0.6 h -0.92 V 6.5 h -0.728 V 2.716 h -0.568 v -0.6 h 0.568 V 1.804 c 0,-0.49067 0.1253,-0.848 0.376,-1.072 0.256,-0.229334 0.664,-0.344 1.224,-0.344 v 0.608 c -0.32,0 -0.5467,0.064 -0.68,0.192 -0.128,0.12267 -0.192,0.328 -0.192,0.616 v 0.312 h 0.92 z m 4.8488,1.424 c 0,0.13867 -0.008,0.28533 -0.024,0.44 h -3.504 c 0.0267,0.432 0.1733,0.77067 0.44,1.016 0.272,0.24 0.6,0.36 0.984,0.36 0.3147,0 0.576,-0.072 0.784,-0.216 0.2133,-0.14933 0.3627,-0.34667 0.448,-0.592 h 0.784 c -0.1173,0.42133 -0.352,0.76533 -0.704,1.032 -0.352,0.26133 -0.7893,0.392 -1.312,0.392 -0.416,0 -0.7893,-0.09333 -1.12,-0.28 C 81.637,6.10533 81.381,5.84133 81.1943,5.5 c -0.1867,-0.34667 -0.28,-0.74667 -0.28,-1.2 0,-0.45333 0.0907,-0.85067 0.272,-1.192 0.1813,-0.34133 0.4347,-0.60267 0.76,-0.784 0.3307,-0.18667 0.7093,-0.28 1.136,-0.28 0.416,0 0.784,0.09067 1.104,0.272 0.32,0.18133 0.5653,0.432 0.736,0.752 0.176,0.31467 0.264,0.672 0.264,1.072 z m -0.752,-0.152 c 0,-0.27733 -0.0613,-0.51467 -0.184,-0.712 -0.1227,-0.20267 -0.2907,-0.35467 -0.504,-0.456 -0.208,-0.10667 -0.44,-0.16 -0.696,-0.16 -0.368,0 -0.6827,0.11733 -0.944,0.352 -0.256,0.23467 -0.4027,0.56 -0.44,0.976 z"
         fill="#000000"
         id="path27" /></g><g
       style="fill:none"
       id="g47"
       transform="matrix(0.55854942,0,0,0.55854942,3.614091,21.026615)"
       clip-path="url(#clipPath378)"><path
         d="M 12,32 C 5.375,32 0,26.625 0,20 0,14.3 8.1375,3.60625 10.4125,0.73125 10.7875,0.2625 11.3438,0 11.9438,0 h 0.1124 c 0.6,0 1.1563,0.2625 1.5313,0.73125 C 15.8625,3.60625 24,14.3 24,20 24,26.625 18.625,32 12,32 Z M 6,21 c 0,-0.55 -0.45,-1 -1,-1 -0.55,0 -1,0.45 -1,1 0,3.8687 3.13125,7 7,7 0.55,0 1,-0.45 1,-1 0,-0.55 -0.45,-1 -1,-1 -2.7625,0 -5,-2.2375 -5,-5 z"
         fill="#de0a2d"
         id="path38" /></g></g></svg>
