<svg width="172" height="32" viewBox="0 0 172 32" fill="none" xmlns="http://www.w3.org/2000/svg">
<g clip-path="url(#clip0_281_134)">
<path d="M12 32C5.375 32 0 26.625 0 20C0 14.3 8.1375 3.60625 10.4125 0.73125C10.7875 0.2625 11.3438 0 11.9438 0H12.0562C12.6562 0 13.2125 0.2625 13.5875 0.73125C15.8625 3.60625 24 14.3 24 20C24 26.625 18.625 32 12 32ZM6 21C6 20.45 5.55 20 5 20C4.45 20 4 20.45 4 21C4 24.8688 7.13125 28 11 28C11.55 28 12 27.55 12 27C12 26.45 11.55 26 11 26C8.2375 26 6 23.7625 6 21Z" fill="#DA251C"/>
</g>
<path d="M40.8449 4.38V5.868H37.8849V15.5H36.0609V5.868H33.0849V4.38H40.8449ZM47.2522 6.54C47.9242 6.54 48.5215 6.684 49.0442 6.972C49.5775 7.26 49.9935 7.68667 50.2922 8.252C50.6015 8.81733 50.7562 9.5 50.7562 10.3V15.5H48.9482V10.572C48.9482 9.78267 48.7509 9.18 48.3562 8.764C47.9615 8.33733 47.4229 8.124 46.7402 8.124C46.0575 8.124 45.5135 8.33733 45.1082 8.764C44.7135 9.18 44.5162 9.78267 44.5162 10.572V15.5H42.6922V3.66H44.5162V7.708C44.8255 7.33467 45.2149 7.04667 45.6842 6.844C46.1642 6.64133 46.6869 6.54 47.2522 6.54ZM61.1628 10.876C61.1628 11.2067 61.1415 11.5053 61.0988 11.772H54.3628C54.4161 12.476 54.6775 13.0413 55.1468 13.468C55.6161 13.8947 56.1921 14.108 56.8748 14.108C57.8561 14.108 58.5495 13.6973 58.9548 12.876H60.9228C60.6561 13.6867 60.1708 14.3533 59.4668 14.876C58.7735 15.388 57.9095 15.644 56.8748 15.644C56.0321 15.644 55.2748 15.4573 54.6028 15.084C53.9415 14.7 53.4188 14.1667 53.0348 13.484C52.6615 12.7907 52.4748 11.9907 52.4748 11.084C52.4748 10.1773 52.6561 9.38267 53.0188 8.7C53.3921 8.00667 53.9095 7.47333 54.5708 7.1C55.2428 6.72667 56.0108 6.54 56.8748 6.54C57.7068 6.54 58.4481 6.72133 59.0988 7.084C59.7495 7.44667 60.2561 7.95867 60.6188 8.62C60.9815 9.27067 61.1628 10.0227 61.1628 10.876ZM59.2588 10.3C59.2481 9.628 59.0081 9.08933 58.5388 8.684C58.0695 8.27867 57.4881 8.076 56.7948 8.076C56.1655 8.076 55.6268 8.27867 55.1788 8.684C54.7308 9.07867 54.4641 9.61733 54.3788 10.3H59.2588ZM73.0661 9.788C73.6634 9.89467 74.1701 10.2093 74.5861 10.732C75.0021 11.2547 75.2101 11.8467 75.2101 12.508C75.2101 13.0733 75.0607 13.5853 74.7621 14.044C74.4741 14.492 74.0527 14.8493 73.4981 15.116C72.9434 15.372 72.2981 15.5 71.5621 15.5H67.1141V4.38H71.3541C72.1114 4.38 72.7621 4.508 73.3061 4.764C73.8501 5.02 74.2607 5.36667 74.5381 5.804C74.8154 6.23067 74.9541 6.71067 74.9541 7.244C74.9541 7.884 74.7834 8.41733 74.4421 8.844C74.1007 9.27067 73.6421 9.58533 73.0661 9.788ZM68.9381 9.052H71.1941C71.7914 9.052 72.2554 8.91867 72.5861 8.652C72.9274 8.37467 73.0981 7.98 73.0981 7.468C73.0981 6.96667 72.9274 6.57733 72.5861 6.3C72.2554 6.012 71.7914 5.868 71.1941 5.868H68.9381V9.052ZM71.4021 14.012C72.0207 14.012 72.5061 13.8627 72.8581 13.564C73.2101 13.2653 73.3861 12.8493 73.3861 12.316C73.3861 11.772 73.1994 11.34 72.8261 11.02C72.4527 10.7 71.9567 10.54 71.3381 10.54H68.9381V14.012H71.4021ZM79.0162 3.66V15.5H77.1922V3.66H79.0162ZM85.2349 15.644C84.4029 15.644 83.6509 15.4573 82.9789 15.084C82.3069 14.7 81.7789 14.1667 81.3949 13.484C81.0109 12.7907 80.8189 11.9907 80.8189 11.084C80.8189 10.188 81.0163 9.39333 81.4109 8.7C81.8056 8.00667 82.3443 7.47333 83.0269 7.1C83.7096 6.72667 84.4723 6.54 85.3149 6.54C86.1576 6.54 86.9203 6.72667 87.6029 7.1C88.2856 7.47333 88.8243 8.00667 89.2189 8.7C89.6136 9.39333 89.8109 10.188 89.8109 11.084C89.8109 11.98 89.6083 12.7747 89.2029 13.468C88.7976 14.1613 88.2429 14.7 87.5389 15.084C86.8456 15.4573 86.0776 15.644 85.2349 15.644ZM85.2349 14.06C85.7043 14.06 86.1416 13.948 86.5469 13.724C86.9629 13.5 87.2989 13.164 87.5549 12.716C87.8109 12.268 87.9389 11.724 87.9389 11.084C87.9389 10.444 87.8163 9.90533 87.5709 9.468C87.3256 9.02 87.0003 8.684 86.5949 8.46C86.1896 8.236 85.7523 8.124 85.2829 8.124C84.8136 8.124 84.3763 8.236 83.9709 8.46C83.5763 8.684 83.2616 9.02 83.0269 9.468C82.7923 9.90533 82.6749 10.444 82.6749 11.084C82.6749 12.0333 82.9149 12.7693 83.3949 13.292C83.8856 13.804 84.4989 14.06 85.2349 14.06ZM95.4381 15.644C94.6061 15.644 93.8541 15.4573 93.1821 15.084C92.5101 14.7 91.9821 14.1667 91.5981 13.484C91.2141 12.7907 91.0221 11.9907 91.0221 11.084C91.0221 10.188 91.2194 9.39333 91.6141 8.7C92.0087 8.00667 92.5474 7.47333 93.2301 7.1C93.9127 6.72667 94.6754 6.54 95.5181 6.54C96.3607 6.54 97.1234 6.72667 97.8061 7.1C98.4887 7.47333 99.0274 8.00667 99.4221 8.7C99.8167 9.39333 100.014 10.188 100.014 11.084C100.014 11.98 99.8114 12.7747 99.4061 13.468C99.0007 14.1613 98.4461 14.7 97.7421 15.084C97.0487 15.4573 96.2807 15.644 95.4381 15.644ZM95.4381 14.06C95.9074 14.06 96.3447 13.948 96.7501 13.724C97.1661 13.5 97.5021 13.164 97.7581 12.716C98.0141 12.268 98.1421 11.724 98.1421 11.084C98.1421 10.444 98.0194 9.90533 97.7741 9.468C97.5287 9.02 97.2034 8.684 96.7981 8.46C96.3927 8.236 95.9554 8.124 95.4861 8.124C95.0167 8.124 94.5794 8.236 94.1741 8.46C93.7794 8.684 93.4647 9.02 93.2301 9.468C92.9954 9.90533 92.8781 10.444 92.8781 11.084C92.8781 12.0333 93.1181 12.7693 93.5981 13.292C94.0887 13.804 94.7021 14.06 95.4381 14.06ZM101.209 11.052C101.209 10.1667 101.391 9.38267 101.753 8.7C102.127 8.01733 102.628 7.48933 103.257 7.116C103.897 6.732 104.607 6.54 105.385 6.54C105.961 6.54 106.527 6.668 107.081 6.924C107.647 7.16933 108.095 7.5 108.425 7.916V3.66H110.265V15.5H108.425V14.172C108.127 14.5987 107.711 14.9507 107.177 15.228C106.655 15.5053 106.052 15.644 105.369 15.644C104.601 15.644 103.897 15.452 103.257 15.068C102.628 14.6733 102.127 14.1293 101.753 13.436C101.391 12.732 101.209 11.9373 101.209 11.052ZM108.425 11.084C108.425 10.476 108.297 9.948 108.041 9.5C107.796 9.052 107.471 8.71067 107.065 8.476C106.66 8.24133 106.223 8.124 105.753 8.124C105.284 8.124 104.847 8.24133 104.441 8.476C104.036 8.7 103.705 9.036 103.449 9.484C103.204 9.92133 103.081 10.444 103.081 11.052C103.081 11.66 103.204 12.1933 103.449 12.652C103.705 13.1107 104.036 13.4627 104.441 13.708C104.857 13.9427 105.295 14.06 105.753 14.06C106.223 14.06 106.66 13.9427 107.065 13.708C107.471 13.4733 107.796 13.132 108.041 12.684C108.297 12.2253 108.425 11.692 108.425 11.084ZM125.697 4.38V15.5H123.873V10.636H118.641V15.5H116.817V4.38H118.641V9.148H123.873V4.38H125.697ZM136.178 10.876C136.178 11.2067 136.157 11.5053 136.114 11.772H129.378C129.432 12.476 129.693 13.0413 130.162 13.468C130.632 13.8947 131.208 14.108 131.89 14.108C132.872 14.108 133.565 13.6973 133.97 12.876H135.938C135.672 13.6867 135.186 14.3533 134.482 14.876C133.789 15.388 132.925 15.644 131.89 15.644C131.048 15.644 130.29 15.4573 129.618 15.084C128.957 14.7 128.434 14.1667 128.05 13.484C127.677 12.7907 127.49 11.9907 127.49 11.084C127.49 10.1773 127.672 9.38267 128.034 8.7C128.408 8.00667 128.925 7.47333 129.586 7.1C130.258 6.72667 131.026 6.54 131.89 6.54C132.722 6.54 133.464 6.72133 134.114 7.084C134.765 7.44667 135.272 7.95867 135.634 8.62C135.997 9.27067 136.178 10.0227 136.178 10.876ZM134.274 10.3C134.264 9.628 134.024 9.08933 133.554 8.684C133.085 8.27867 132.504 8.076 131.81 8.076C131.181 8.076 130.642 8.27867 130.194 8.684C129.746 9.07867 129.48 9.61733 129.394 10.3H134.274ZM139.797 7.964C140.064 7.516 140.416 7.16933 140.853 6.924C141.301 6.668 141.829 6.54 142.437 6.54V8.428H141.973C141.259 8.428 140.715 8.60933 140.341 8.972C139.979 9.33467 139.797 9.964 139.797 10.86V15.5H137.973V6.684H139.797V7.964ZM147.938 15.644C147.106 15.644 146.354 15.4573 145.682 15.084C145.01 14.7 144.482 14.1667 144.098 13.484C143.714 12.7907 143.522 11.9907 143.522 11.084C143.522 10.188 143.719 9.39333 144.114 8.7C144.509 8.00667 145.047 7.47333 145.73 7.1C146.413 6.72667 147.175 6.54 148.018 6.54C148.861 6.54 149.623 6.72667 150.306 7.1C150.989 7.47333 151.527 8.00667 151.922 8.7C152.317 9.39333 152.514 10.188 152.514 11.084C152.514 11.98 152.311 12.7747 151.906 13.468C151.501 14.1613 150.946 14.7 150.242 15.084C149.549 15.4573 148.781 15.644 147.938 15.644ZM147.938 14.06C148.407 14.06 148.845 13.948 149.25 13.724C149.666 13.5 150.002 13.164 150.258 12.716C150.514 12.268 150.642 11.724 150.642 11.084C150.642 10.444 150.519 9.90533 150.274 9.468C150.029 9.02 149.703 8.684 149.298 8.46C148.893 8.236 148.455 8.124 147.986 8.124C147.517 8.124 147.079 8.236 146.674 8.46C146.279 8.684 145.965 9.02 145.73 9.468C145.495 9.90533 145.378 10.444 145.378 11.084C145.378 12.0333 145.618 12.7693 146.098 13.292C146.589 13.804 147.202 14.06 147.938 14.06ZM162.397 10.876C162.397 11.2067 162.376 11.5053 162.333 11.772H155.597C155.651 12.476 155.912 13.0413 156.381 13.468C156.851 13.8947 157.427 14.108 158.109 14.108C159.091 14.108 159.784 13.6973 160.189 12.876H162.157C161.891 13.6867 161.405 14.3533 160.701 14.876C160.008 15.388 159.144 15.644 158.109 15.644C157.267 15.644 156.509 15.4573 155.837 15.084C155.176 14.7 154.653 14.1667 154.269 13.484C153.896 12.7907 153.709 11.9907 153.709 11.084C153.709 10.1773 153.891 9.38267 154.253 8.7C154.627 8.00667 155.144 7.47333 155.805 7.1C156.477 6.72667 157.245 6.54 158.109 6.54C158.941 6.54 159.683 6.72133 160.333 7.084C160.984 7.44667 161.491 7.95867 161.853 8.62C162.216 9.27067 162.397 10.0227 162.397 10.876ZM160.493 10.3C160.483 9.628 160.243 9.08933 159.773 8.684C159.304 8.27867 158.723 8.076 158.029 8.076C157.4 8.076 156.861 8.27867 156.413 8.684C155.965 9.07867 155.699 9.61733 155.613 10.3H160.493ZM167.392 15.644C166.699 15.644 166.075 15.5213 165.52 15.276C164.976 15.02 164.544 14.6787 164.224 14.252C163.904 13.8147 163.734 13.3293 163.712 12.796H165.6C165.632 13.1693 165.808 13.484 166.128 13.74C166.459 13.9853 166.87 14.108 167.36 14.108C167.872 14.108 168.267 14.012 168.544 13.82C168.832 13.6173 168.976 13.3613 168.976 13.052C168.976 12.7213 168.816 12.476 168.496 12.316C168.187 12.156 167.691 11.98 167.008 11.788C166.347 11.6067 165.808 11.4307 165.392 11.26C164.976 11.0893 164.614 10.828 164.304 10.476C164.006 10.124 163.856 9.66 163.856 9.084C163.856 8.61467 163.995 8.188 164.272 7.804C164.55 7.40933 164.944 7.1 165.456 6.876C165.979 6.652 166.576 6.54 167.248 6.54C168.251 6.54 169.056 6.796 169.664 7.308C170.283 7.80933 170.614 8.49733 170.656 9.372H168.832C168.8 8.97733 168.64 8.66267 168.352 8.428C168.064 8.19333 167.675 8.076 167.184 8.076C166.704 8.076 166.336 8.16667 166.08 8.348C165.824 8.52933 165.696 8.76933 165.696 9.068C165.696 9.30267 165.782 9.5 165.952 9.66C166.123 9.82 166.331 9.948 166.576 10.044C166.822 10.1293 167.184 10.2413 167.664 10.38C168.304 10.5507 168.827 10.7267 169.232 10.908C169.648 11.0787 170.006 11.3347 170.304 11.676C170.603 12.0173 170.758 12.4707 170.768 13.036C170.768 13.5373 170.63 13.9853 170.352 14.38C170.075 14.7747 169.68 15.084 169.168 15.308C168.667 15.532 168.075 15.644 167.392 15.644Z" fill="black"/>
<path d="M36.9887 22.924L35.1728 26.396V28.5H34.4448V26.396L32.6208 22.924H33.4288L34.8048 25.748L36.1808 22.924H36.9887ZM39.6686 28.572C39.258 28.572 38.8846 28.4787 38.5486 28.292C38.218 28.1053 37.9566 27.8413 37.7646 27.5C37.578 27.1533 37.4846 26.7533 37.4846 26.3C37.4846 25.852 37.5806 25.4573 37.7726 25.116C37.97 24.7693 38.2366 24.5053 38.5726 24.324C38.9086 24.1373 39.2846 24.044 39.7006 24.044C40.1166 24.044 40.4926 24.1373 40.8286 24.324C41.1646 24.5053 41.4286 24.7667 41.6206 25.108C41.818 25.4493 41.9166 25.8467 41.9166 26.3C41.9166 26.7533 41.8153 27.1533 41.6126 27.5C41.4153 27.8413 41.146 28.1053 40.8046 28.292C40.4633 28.4787 40.0846 28.572 39.6686 28.572ZM39.6686 27.932C39.93 27.932 40.1753 27.8707 40.4046 27.748C40.634 27.6253 40.818 27.4413 40.9566 27.196C41.1006 26.9507 41.1726 26.652 41.1726 26.3C41.1726 25.948 41.1033 25.6493 40.9646 25.404C40.826 25.1587 40.6446 24.9773 40.4206 24.86C40.1966 24.7373 39.954 24.676 39.6926 24.676C39.426 24.676 39.1806 24.7373 38.9566 24.86C38.738 24.9773 38.562 25.1587 38.4286 25.404C38.2953 25.6493 38.2286 25.948 38.2286 26.3C38.2286 26.6573 38.2926 26.9587 38.4206 27.204C38.554 27.4493 38.73 27.6333 38.9486 27.756C39.1673 27.8733 39.4073 27.932 39.6686 27.932ZM46.7618 24.116V28.5H46.0338V27.852C45.8951 28.076 45.7005 28.252 45.4498 28.38C45.2045 28.5027 44.9325 28.564 44.6338 28.564C44.2925 28.564 43.9858 28.4947 43.7138 28.356C43.4418 28.212 43.2258 27.9987 43.0658 27.716C42.9111 27.4333 42.8338 27.0893 42.8338 26.684V24.116H43.5538V26.588C43.5538 27.02 43.6631 27.3533 43.8818 27.588C44.1005 27.8173 44.3991 27.932 44.7778 27.932C45.1671 27.932 45.4738 27.812 45.6978 27.572C45.9218 27.332 46.0338 26.9827 46.0338 26.524V24.116H46.7618ZM48.719 24.828C48.847 24.5773 49.0283 24.3827 49.263 24.244C49.503 24.1053 49.7937 24.036 50.135 24.036V24.788H49.943C49.127 24.788 48.719 25.2307 48.719 26.116V28.5H47.991V24.116H48.719V24.828ZM53.8362 24.932C53.9855 24.6707 54.2042 24.4573 54.4922 24.292C54.7802 24.1267 55.1082 24.044 55.4762 24.044C55.8709 24.044 56.2255 24.1373 56.5402 24.324C56.8549 24.5107 57.1029 24.7747 57.2842 25.116C57.4655 25.452 57.5562 25.844 57.5562 26.292C57.5562 26.7347 57.4655 27.1293 57.2842 27.476C57.1029 27.8227 56.8522 28.092 56.5322 28.284C56.2175 28.476 55.8655 28.572 55.4762 28.572C55.0975 28.572 54.7642 28.4893 54.4762 28.324C54.1935 28.1587 53.9802 27.948 53.8362 27.692V28.5H53.1082V22.58H53.8362V24.932ZM56.8122 26.292C56.8122 25.9613 56.7455 25.6733 56.6122 25.428C56.4789 25.1827 56.2975 24.996 56.0682 24.868C55.8442 24.74 55.5962 24.676 55.3242 24.676C55.0575 24.676 54.8095 24.7427 54.5802 24.876C54.3562 25.004 54.1749 25.1933 54.0362 25.444C53.9029 25.6893 53.8362 25.9747 53.8362 26.3C53.8362 26.6307 53.9029 26.9213 54.0362 27.172C54.1749 27.4173 54.3562 27.6067 54.5802 27.74C54.8095 27.868 55.0575 27.932 55.3242 27.932C55.5962 27.932 55.8442 27.868 56.0682 27.74C56.2975 27.6067 56.4789 27.4173 56.6122 27.172C56.7455 26.9213 56.8122 26.628 56.8122 26.292ZM59.2424 22.58V28.5H58.5144V22.58H59.2424ZM62.3952 28.572C61.9845 28.572 61.6112 28.4787 61.2752 28.292C60.9445 28.1053 60.6832 27.8413 60.4912 27.5C60.3045 27.1533 60.2112 26.7533 60.2112 26.3C60.2112 25.852 60.3072 25.4573 60.4992 25.116C60.6965 24.7693 60.9632 24.5053 61.2992 24.324C61.6352 24.1373 62.0112 24.044 62.4272 24.044C62.8432 24.044 63.2192 24.1373 63.5552 24.324C63.8912 24.5053 64.1552 24.7667 64.3472 25.108C64.5445 25.4493 64.6432 25.8467 64.6432 26.3C64.6432 26.7533 64.5419 27.1533 64.3392 27.5C64.1419 27.8413 63.8725 28.1053 63.5312 28.292C63.1899 28.4787 62.8112 28.572 62.3952 28.572ZM62.3952 27.932C62.6565 27.932 62.9019 27.8707 63.1312 27.748C63.3605 27.6253 63.5445 27.4413 63.6832 27.196C63.8272 26.9507 63.8992 26.652 63.8992 26.3C63.8992 25.948 63.8299 25.6493 63.6912 25.404C63.5525 25.1587 63.3712 24.9773 63.1472 24.86C62.9232 24.7373 62.6805 24.676 62.4192 24.676C62.1525 24.676 61.9072 24.7373 61.6832 24.86C61.4645 24.9773 61.2885 25.1587 61.1552 25.404C61.0219 25.6493 60.9552 25.948 60.9552 26.3C60.9552 26.6573 61.0192 26.9587 61.1472 27.204C61.2805 27.4493 61.4565 27.6333 61.6752 27.756C61.8939 27.8733 62.1339 27.932 62.3952 27.932ZM67.5124 28.572C67.1017 28.572 66.7284 28.4787 66.3924 28.292C66.0617 28.1053 65.8004 27.8413 65.6084 27.5C65.4217 27.1533 65.3284 26.7533 65.3284 26.3C65.3284 25.852 65.4244 25.4573 65.6164 25.116C65.8137 24.7693 66.0804 24.5053 66.4164 24.324C66.7524 24.1373 67.1284 24.044 67.5444 24.044C67.9604 24.044 68.3364 24.1373 68.6724 24.324C69.0084 24.5053 69.2724 24.7667 69.4644 25.108C69.6617 25.4493 69.7604 25.8467 69.7604 26.3C69.7604 26.7533 69.659 27.1533 69.4564 27.5C69.259 27.8413 68.9897 28.1053 68.6484 28.292C68.307 28.4787 67.9284 28.572 67.5124 28.572ZM67.5124 27.932C67.7737 27.932 68.019 27.8707 68.2484 27.748C68.4777 27.6253 68.6617 27.4413 68.8004 27.196C68.9444 26.9507 69.0164 26.652 69.0164 26.3C69.0164 25.948 68.947 25.6493 68.8084 25.404C68.6697 25.1587 68.4884 24.9773 68.2644 24.86C68.0404 24.7373 67.7977 24.676 67.5364 24.676C67.2697 24.676 67.0244 24.7373 66.8004 24.86C66.5817 24.9773 66.4057 25.1587 66.2724 25.404C66.139 25.6493 66.0724 25.948 66.0724 26.3C66.0724 26.6573 66.1364 26.9587 66.2644 27.204C66.3977 27.4493 66.5737 27.6333 66.7924 27.756C67.011 27.8733 67.251 27.932 67.5124 27.932ZM70.4456 26.292C70.4456 25.844 70.5362 25.452 70.7176 25.116C70.8989 24.7747 71.1469 24.5107 71.4616 24.324C71.7816 24.1373 72.1389 24.044 72.5336 24.044C72.8749 24.044 73.1922 24.124 73.4856 24.284C73.7789 24.4387 74.0029 24.644 74.1576 24.9V22.58H74.8936V28.5H74.1576V27.676C74.0136 27.9373 73.8002 28.1533 73.5176 28.324C73.2349 28.4893 72.9042 28.572 72.5256 28.572C72.1362 28.572 71.7816 28.476 71.4616 28.284C71.1469 28.092 70.8989 27.8227 70.7176 27.476C70.5362 27.1293 70.4456 26.7347 70.4456 26.292ZM74.1576 26.3C74.1576 25.9693 74.0909 25.6813 73.9576 25.436C73.8242 25.1907 73.6429 25.004 73.4136 24.876C73.1896 24.7427 72.9416 24.676 72.6696 24.676C72.3976 24.676 72.1496 24.74 71.9256 24.868C71.7016 24.996 71.5229 25.1827 71.3896 25.428C71.2562 25.6733 71.1896 25.9613 71.1896 26.292C71.1896 26.628 71.2562 26.9213 71.3896 27.172C71.5229 27.4173 71.7016 27.6067 71.9256 27.74C72.1496 27.868 72.3976 27.932 72.6696 27.932C72.9416 27.932 73.1896 27.868 73.4136 27.74C73.6429 27.6067 73.8242 27.4173 73.9576 27.172C74.0909 26.9213 74.1576 26.6307 74.1576 26.3ZM78.6326 23.404C78.494 23.404 78.3766 23.356 78.2806 23.26C78.1846 23.164 78.1366 23.0467 78.1366 22.908C78.1366 22.7693 78.1846 22.652 78.2806 22.556C78.3766 22.46 78.494 22.412 78.6326 22.412C78.766 22.412 78.878 22.46 78.9686 22.556C79.0646 22.652 79.1126 22.7693 79.1126 22.908C79.1126 23.0467 79.0646 23.164 78.9686 23.26C78.878 23.356 78.766 23.404 78.6326 23.404ZM78.9846 24.116V28.5H78.2566V24.116H78.9846ZM81.7774 28.572C81.4414 28.572 81.14 28.516 80.8734 28.404C80.6067 28.2867 80.396 28.1267 80.2414 27.924C80.0867 27.716 80.0014 27.4787 79.9854 27.212H80.7374C80.7587 27.4307 80.86 27.6093 81.0414 27.748C81.228 27.8867 81.4707 27.956 81.7694 27.956C82.0467 27.956 82.2654 27.8947 82.4254 27.772C82.5854 27.6493 82.6654 27.4947 82.6654 27.308C82.6654 27.116 82.58 26.9747 82.4094 26.884C82.2387 26.788 81.9747 26.6947 81.6174 26.604C81.292 26.5187 81.0254 26.4333 80.8174 26.348C80.6147 26.2573 80.4387 26.1267 80.2894 25.956C80.1454 25.78 80.0734 25.5507 80.0734 25.268C80.0734 25.044 80.14 24.8387 80.2734 24.652C80.4067 24.4653 80.596 24.3187 80.8414 24.212C81.0867 24.1 81.3667 24.044 81.6814 24.044C82.1667 24.044 82.5587 24.1667 82.8574 24.412C83.156 24.6573 83.316 24.9933 83.3374 25.42H82.6094C82.5934 25.1907 82.5 25.0067 82.3294 24.868C82.164 24.7293 81.94 24.66 81.6574 24.66C81.396 24.66 81.188 24.716 81.0334 24.828C80.8787 24.94 80.8014 25.0867 80.8014 25.268C80.8014 25.412 80.8467 25.532 80.9374 25.628C81.0334 25.7187 81.1507 25.7933 81.2894 25.852C81.4334 25.9053 81.6307 25.9667 81.8814 26.036C82.196 26.1213 82.452 26.2067 82.6494 26.292C82.8467 26.372 83.0147 26.4947 83.1534 26.66C83.2974 26.8253 83.372 27.0413 83.3774 27.308C83.3774 27.548 83.3107 27.764 83.1774 27.956C83.044 28.148 82.8547 28.3 82.6094 28.412C82.3694 28.5187 82.092 28.572 81.7774 28.572ZM87.4259 24.716V27.3C87.4259 27.5133 87.4712 27.6653 87.5619 27.756C87.6525 27.8413 87.8099 27.884 88.0339 27.884H88.5699V28.5H87.9139C87.5085 28.5 87.2045 28.4067 87.0019 28.22C86.7992 28.0333 86.6979 27.7267 86.6979 27.3V24.716H86.1299V24.116H86.6979V23.012H87.4259V24.116H88.5699V24.716H87.4259ZM91.6279 24.036C91.9586 24.036 92.2573 24.108 92.5239 24.252C92.7906 24.3907 92.9986 24.6013 93.1479 24.884C93.3026 25.1667 93.3799 25.5107 93.3799 25.916V28.5H92.6599V26.02C92.6599 25.5827 92.5506 25.2493 92.3319 25.02C92.1133 24.7853 91.8146 24.668 91.4359 24.668C91.0519 24.668 90.7453 24.788 90.5159 25.028C90.2919 25.268 90.1799 25.6173 90.1799 26.076V28.5H89.4519V22.58H90.1799V24.74C90.3239 24.516 90.5213 24.3427 90.7719 24.22C91.0279 24.0973 91.3133 24.036 91.6279 24.036ZM98.5691 26.14C98.5691 26.2787 98.5611 26.4253 98.5451 26.58H95.0411C95.0678 27.012 95.2145 27.3507 95.4811 27.596C95.7531 27.836 96.0811 27.956 96.4651 27.956C96.7798 27.956 97.0411 27.884 97.2491 27.74C97.4625 27.5907 97.6118 27.3933 97.6971 27.148H98.4811C98.3638 27.5693 98.1291 27.9133 97.7771 28.18C97.4251 28.4413 96.9878 28.572 96.4651 28.572C96.0491 28.572 95.6758 28.4787 95.3451 28.292C95.0198 28.1053 94.7638 27.8413 94.5771 27.5C94.3905 27.1533 94.2971 26.7533 94.2971 26.3C94.2971 25.8467 94.3878 25.4493 94.5691 25.108C94.7505 24.7667 95.0038 24.5053 95.3291 24.324C95.6598 24.1373 96.0385 24.044 96.4651 24.044C96.8811 24.044 97.2491 24.1347 97.5691 24.316C97.8891 24.4973 98.1345 24.748 98.3051 25.068C98.4811 25.3827 98.5691 25.74 98.5691 26.14ZM97.8171 25.988C97.8171 25.7107 97.7558 25.4733 97.6331 25.276C97.5105 25.0733 97.3425 24.9213 97.1291 24.82C96.9211 24.7133 96.6891 24.66 96.4331 24.66C96.0651 24.66 95.7505 24.7773 95.4891 25.012C95.2331 25.2467 95.0865 25.572 95.0491 25.988H97.8171ZM99.9061 23.404C99.7674 23.404 99.6501 23.356 99.5541 23.26C99.4581 23.164 99.4101 23.0467 99.4101 22.908C99.4101 22.7693 99.4581 22.652 99.5541 22.556C99.6501 22.46 99.7674 22.412 99.9061 22.412C100.039 22.412 100.151 22.46 100.242 22.556C100.338 22.652 100.386 22.7693 100.386 22.908C100.386 23.0467 100.338 23.164 100.242 23.26C100.151 23.356 100.039 23.404 99.9061 23.404ZM100.258 24.116V28.5H99.5301V24.116H100.258ZM102.227 24.828C102.355 24.5773 102.536 24.3827 102.771 24.244C103.011 24.1053 103.301 24.036 103.643 24.036V24.788H103.451C102.635 24.788 102.227 25.2307 102.227 26.116V28.5H101.499V24.116H102.227V24.828ZM107.344 22.58V28.5H106.616V22.58H107.344ZM108.961 23.404C108.822 23.404 108.705 23.356 108.609 23.26C108.513 23.164 108.465 23.0467 108.465 22.908C108.465 22.7693 108.513 22.652 108.609 22.556C108.705 22.46 108.822 22.412 108.961 22.412C109.094 22.412 109.206 22.46 109.297 22.556C109.393 22.652 109.441 22.7693 109.441 22.908C109.441 23.0467 109.393 23.164 109.297 23.26C109.206 23.356 109.094 23.404 108.961 23.404ZM109.313 24.116V28.5H108.585V24.116H109.313ZM112.338 24.716H111.418V28.5H110.69V24.716H110.122V24.116H110.69V23.804C110.69 23.3133 110.815 22.956 111.066 22.732C111.322 22.5027 111.73 22.388 112.289 22.388V22.996C111.97 22.996 111.743 23.06 111.61 23.188C111.482 23.3107 111.418 23.516 111.418 23.804V24.116H112.338V24.716ZM117.186 26.14C117.186 26.2787 117.178 26.4253 117.162 26.58H113.658C113.685 27.012 113.832 27.3507 114.098 27.596C114.37 27.836 114.698 27.956 115.082 27.956C115.397 27.956 115.658 27.884 115.866 27.74C116.08 27.5907 116.229 27.3933 116.314 27.148H117.098C116.981 27.5693 116.746 27.9133 116.394 28.18C116.042 28.4413 115.605 28.572 115.082 28.572C114.666 28.572 114.293 28.4787 113.962 28.292C113.637 28.1053 113.381 27.8413 113.194 27.5C113.008 27.1533 112.914 26.7533 112.914 26.3C112.914 25.8467 113.005 25.4493 113.186 25.108C113.368 24.7667 113.621 24.5053 113.946 24.324C114.277 24.1373 114.656 24.044 115.082 24.044C115.498 24.044 115.866 24.1347 116.186 24.316C116.506 24.4973 116.752 24.748 116.922 25.068C117.098 25.3827 117.186 25.74 117.186 26.14ZM116.434 25.988C116.434 25.7107 116.373 25.4733 116.25 25.276C116.128 25.0733 115.96 24.9213 115.746 24.82C115.538 24.7133 115.306 24.66 115.05 24.66C114.682 24.66 114.368 24.7773 114.106 25.012C113.85 25.2467 113.704 25.572 113.666 25.988H116.434Z" fill="black"/>
<defs>
<clipPath id="clip0_281_134">
<rect width="24" height="32" fill="white"/>
</clipPath>
</defs>
</svg>
